<svg width="20" height="20" viewBox="0 0 20 20" fill="none" xmlns="http://www.w3.org/2000/svg">
<g clip-path="url(#clip0_2021_67)">
<path fill-rule="evenodd" clip-rule="evenodd" d="M10.0001 0C7.78241 0 6.00761 0.0691069 4.14788 0.200566C2.41708 0.322912 1.03862 1.69987 0.925316 3.43503C0.78709 5.55194 0.714355 7.74827 0.714355 10C0.714355 12.2517 0.78709 14.4481 0.925316 16.565C1.03862 18.3002 2.41711 19.677 4.14788 19.7994C6.0076 19.9308 7.78238 20 10.0001 20C12.2178 20 13.9925 19.9308 15.8523 19.7994C17.583 19.677 18.9616 18.3002 19.0748 16.565C19.213 14.4481 19.2858 12.2517 19.2858 10C19.2858 9.38731 19.2805 8.77868 19.2698 8.1746C19.2476 6.91162 18.842 5.66708 18.055 4.65154C16.8381 3.08127 15.7446 1.9896 14.0719 0.714623C13.4949 0.274845 12.795 0.0388346 12.0797 0.0225577C11.4219 0.0075915 10.7351 0 10.0001 0ZM4.24861 1.62558C6.07493 1.49648 7.81613 1.42857 10.0001 1.42857C10.7252 1.42857 11.4012 1.43606 12.0472 1.45076C12.4708 1.4604 12.8768 1.59996 13.2059 1.85077C14.781 3.0514 15.7858 4.05559 16.9258 5.52663C17.511 6.28172 17.8243 7.22298 17.8415 8.19974C17.852 8.79534 17.8572 9.39558 17.8572 10C17.8572 12.2211 17.7854 14.3865 17.6493 16.4719C17.5828 17.4906 16.7737 18.3021 15.7516 18.3743C13.9252 18.5035 12.184 18.5714 10.0001 18.5714C7.81613 18.5714 6.07494 18.5035 4.2486 18.3743C3.22651 18.3021 2.41737 17.4906 2.35085 16.4719C2.21468 14.3865 2.14293 12.2211 2.14293 10C2.14293 7.77887 2.21468 5.6136 2.35085 3.52812C2.41737 2.50942 3.22655 1.69783 4.24861 1.62558ZM5.46002 15.4073C5.6745 15.5871 5.95351 15.7179 6.28025 15.7062C6.59711 15.6948 6.85363 15.5528 7.04044 15.3968C7.39116 15.1039 7.65164 14.6328 7.85204 14.1647C7.91385 14.0203 7.97383 13.8666 8.03184 13.705C8.58471 13.4932 9.22351 13.2938 9.88583 13.1266C10.5301 12.9639 11.1712 12.838 11.7493 12.7603C11.8932 12.8772 12.0344 12.9856 12.1719 13.0843C12.5959 13.3884 13.0643 13.6581 13.5128 13.7391C13.7481 13.7816 14.0371 13.7829 14.3171 13.6484C14.6118 13.5068 14.8008 13.2612 14.9047 12.9925C14.9993 12.7481 15.0411 12.4517 14.933 12.1506C14.8255 11.8512 14.6087 11.6561 14.4006 11.5358C14.0184 11.3148 13.5098 11.2535 13.0467 11.2439C12.7888 11.2385 12.5075 11.2491 12.2105 11.2733C11.6465 10.7629 11.0318 10.1173 10.4426 9.42119C9.93726 8.82423 9.46513 8.20729 9.07102 7.62924C9.08024 7.22274 9.07336 6.83921 9.04814 6.4922C9.0097 5.96317 8.92415 5.4413 8.73892 5.0486C8.64532 4.85016 8.49558 4.61811 8.24909 4.46076C7.97264 4.28428 7.65435 4.25275 7.35587 4.34118C7.05384 4.43067 6.80683 4.63301 6.67127 4.9277C6.55025 5.19078 6.54629 5.46545 6.57202 5.68486C6.623 6.11953 6.82541 6.61279 7.07344 7.08988C7.22858 7.38829 7.4156 7.7064 7.62664 8.03521C7.59259 8.71052 7.5154 9.45348 7.40175 10.196C7.26672 11.078 7.08491 11.9286 6.87633 12.6389C6.63816 12.7468 6.41701 12.8582 6.21838 12.9722C5.8192 13.2013 5.39999 13.5016 5.17497 13.8888C5.05126 14.1016 4.96377 14.3809 5.022 14.6942C5.07973 15.0049 5.26057 15.2401 5.46002 15.4073ZM9.53608 11.7415C9.19149 11.8285 8.8459 11.9254 8.50841 12.0303C8.62762 11.5069 8.73022 10.9586 8.81387 10.4121C8.84523 10.2073 8.87416 10.0012 8.90043 9.79508C9.04833 9.98008 9.19934 10.1636 9.35219 10.3442C9.70071 10.7559 10.0651 11.1598 10.4313 11.537C10.1324 11.598 9.83218 11.6667 9.53608 11.7415Z" fill="#6A24FF"/>
</g>
<defs>
<clipPath id="clip0_2021_67">
<rect width="20" height="20" fill="white"/>
</clipPath>
</defs>
</svg>
